<?xml version="1.0" encoding="UTF-8" standalone="no"?>
<!-- Created with Inkscape (http://www.inkscape.org/) -->

<svg
   xmlns:dc="http://purl.org/dc/elements/1.1/"
   xmlns:cc="http://creativecommons.org/ns#"
   xmlns:rdf="http://www.w3.org/1999/02/22-rdf-syntax-ns#"
   xmlns:svg="http://www.w3.org/2000/svg"
   xmlns="http://www.w3.org/2000/svg"
   xmlns:sodipodi="http://sodipodi.sourceforge.net/DTD/sodipodi-0.dtd"
   xmlns:inkscape="http://www.inkscape.org/namespaces/inkscape"
   version="1.0"
   width="180"
   height="320"
   id="svg8742"
   inkscape:version="0.92.3 (2405546, 2018-03-11)"
   sodipodi:docname="ananas.svg">
  <metadata
     id="metadata1100">
    <rdf:RDF>
      <cc:Work
         rdf:about="">
        <dc:format>image/svg+xml</dc:format>
        <dc:type
           rdf:resource="http://purl.org/dc/dcmitype/StillImage" />
        <dc:title></dc:title>
      </cc:Work>
    </rdf:RDF>
  </metadata>
  <sodipodi:namedview
     pagecolor="#ffffff"
     bordercolor="#666666"
     borderopacity="1"
     objecttolerance="10"
     gridtolerance="10"
     guidetolerance="10"
     inkscape:pageopacity="0"
     inkscape:pageshadow="2"
     inkscape:window-width="1920"
     inkscape:window-height="1062"
     id="namedview1098"
     showgrid="false"
     inkscape:zoom="1.4358042"
     inkscape:cx="157.23163"
     inkscape:cy="156.26129"
     inkscape:window-x="0"
     inkscape:window-y="0"
     inkscape:window-maximized="1"
     inkscape:current-layer="g5442"
     fit-margin-bottom="1"
     fit-margin-top="0"
     fit-margin-left="0"
     fit-margin-right="0" />
  <defs
     id="defs8744" />
  <g
     transform="translate(-175.40725,-187.08072)"
     id="g5442">
    <g
       id="g4764"
       transform="matrix(4.2687484,0,0,4.2687484,-1119.2638,-1492.3447)">
      <path
         inkscape:connector-curvature="0"
         style="font-style:normal;font-variant:normal;font-weight:normal;font-stretch:normal;letter-spacing:normal;word-spacing:normal;text-anchor:start;fill:#3d995c;fill-opacity:1;fill-rule:evenodd;stroke:#3d995c;stroke-width:1.2029916;stroke-linecap:butt;stroke-linejoin:miter;stroke-miterlimit:10.43299961;stroke-dasharray:none;stroke-dashoffset:0;stroke-opacity:1"
         id="path1252"
         d="m 312.04366,408.70871 -4.42581,1.85119 c 0,0 2.40184,1.2747 4.97663,2.02415 2.58119,0.55087 13.42473,1.28109 13.42473,1.28109 z" />
      <path
         inkscape:connector-curvature="0"
         style="font-style:normal;font-variant:normal;font-weight:normal;font-stretch:normal;letter-spacing:normal;word-spacing:normal;text-anchor:start;fill:#308a2a;fill-opacity:1;stroke:#000000;stroke-width:1.2029916;stroke-linecap:butt;stroke-linejoin:miter;stroke-miterlimit:10.43299961;stroke-dasharray:none;stroke-dashoffset:0;stroke-opacity:1"
         id="path1254"
         d="m 312.04366,408.70871 -4.42581,1.85119 c 0,0 2.40184,1.2747 4.97663,2.02415 2.58119,0.55087 13.42473,1.28109 13.42473,1.28109 z" />
      <path
         inkscape:connector-curvature="0"
         style="font-style:normal;font-variant:normal;font-weight:normal;font-stretch:normal;letter-spacing:normal;word-spacing:normal;text-anchor:start;fill:#3d995c;fill-opacity:1;fill-rule:evenodd;stroke:#3d995c;stroke-width:1.2029916;stroke-linecap:butt;stroke-linejoin:miter;stroke-miterlimit:10.43299961;stroke-dasharray:none;stroke-dashoffset:0;stroke-opacity:1"
         id="path1256"
         d="m 331.2072,417.56753 v -0.006 -0.0128 l 0.0641,-0.0192 v -0.0257 l 0.0641,-0.032 0.0641,-0.0448 0.1281,-0.10248 0.19215,-0.14092 0.25619,-0.16014 0.2562,-0.19217 0.32025,-0.21779 0.32024,-0.24341 0.3843,-0.26903 0.3843,-0.30105 0.38429,-0.32028 0.44835,-0.3395 0.38429,-0.37152 0.5124,-0.39073 0.44834,-0.40995 0.51239,-0.43558 0.44835,-0.45479 0.51239,-0.48041 0.5124,-0.49323 0.51239,-0.51244 0.5124,-0.53806 0.51239,-0.55088 0.44835,-0.57009 0.51239,-0.5829 0.51239,-0.60211 0.44835,-0.62134 0.44834,-0.62774 0.44835,-0.64696 0.38429,-0.65977 0.44835,-0.67898 0.3843,-0.68539 c 0,0 -9.6074,1.30673 -12.74581,7.00764 0,0 5.70038,-8.28233 6.27683,-12.15767 0,0 -8.32641,7.00122 -9.54334,10.33209 0,0 4.35535,-10.33209 3.26651,-14.21383 0,0 -6.78922,4.60556 -6.08468,11.61319 0,0 -4.22725,-10.31287 -7.34646,-10.86375 0,0 -3.32416,7.91081 7.34646,10.86375 h -0.32025 c 0,0 -11.82991,-4.77851 -14.75696,-2.58142 0,0 4.40659,7.00764 13.98837,7.75708 0,0 -14.73775,-1.30032 -16.56315,0.55087 0,0 7.73075,3.30525 10.85636,2.58142 0,0 7.75637,-0.55087 13.45675,1.85119 z" />
      <path
         inkscape:connector-curvature="0"
         sodipodi:nodetypes="ccccccccccccccccccccccccccccccccccccccccccccccsccc"
         style="font-style:normal;font-variant:normal;font-weight:normal;font-stretch:normal;letter-spacing:normal;word-spacing:normal;text-anchor:start;fill:#308a2a;fill-opacity:1;stroke:#000000;stroke-width:1.2029916;stroke-linecap:butt;stroke-linejoin:miter;stroke-miterlimit:10.43299961;stroke-dasharray:none;stroke-dashoffset:0;stroke-opacity:1"
         id="path1258"
         d="m 331.2072,417.56753 v -0.006 -0.0128 l 0.0641,-0.0192 v -0.0257 l 0.0641,-0.032 0.0641,-0.0448 0.1281,-0.10248 0.19215,-0.14092 0.25619,-0.16014 0.2562,-0.19217 0.32025,-0.21779 0.32024,-0.24341 0.3843,-0.26903 0.3843,-0.30105 0.38429,-0.32028 0.44835,-0.3395 0.38429,-0.37152 0.5124,-0.39073 0.44834,-0.40995 0.51239,-0.43558 0.44835,-0.45479 0.51239,-0.48041 0.5124,-0.49323 0.51239,-0.51244 0.5124,-0.53806 0.51239,-0.55088 0.44835,-0.57009 0.51239,-0.5829 0.51239,-0.60211 0.44835,-0.62134 0.44834,-0.62774 0.44835,-0.64696 0.38429,-0.65977 0.44835,-0.67898 0.3843,-0.68539 c 0,0 -9.6074,1.30673 -12.74581,7.00764 0,0 5.70038,-8.28233 6.27683,-12.15767 0,0 -8.32641,7.00122 -9.54334,10.33209 0,0 4.35535,-10.33209 3.26651,-14.21383 0,0 -6.78922,4.60556 -6.08468,11.61319 0,0 -4.22725,-10.31287 -7.34646,-10.86375 0,0 -3.32416,7.91081 7.34646,10.86375 h -0.32025 c 0,0 -11.82991,-4.77851 -14.75696,-2.58142 0,0 4.40659,7.00764 13.98837,7.75708 0,0 -6.1951,-0.54659 -11.04962,-0.42648 -2.633,0.0652 -4.87162,0.32642 -5.51353,0.97737 0,0 7.73075,3.30524 10.85636,2.58142 0,0 7.75637,-0.55087 13.45675,1.85119 z" />
      <path
         inkscape:connector-curvature="0"
         style="font-style:normal;font-variant:normal;font-weight:normal;font-stretch:normal;letter-spacing:normal;word-spacing:normal;text-anchor:start;fill:#ff6600;fill-opacity:1;fill-rule:evenodd;stroke:#ff6600;stroke-width:1.2029916;stroke-linecap:butt;stroke-linejoin:miter;stroke-miterlimit:10.43299961;stroke-dasharray:none;stroke-dashoffset:0;stroke-opacity:1"
         id="path1260"
         d="m 333.76917,463.65518 0.89669,-0.62773 0.89669,-0.69821 0.83264,-0.76225 0.7686,-0.83271 0.70454,-0.89678 0.70454,-0.94801 0.57644,-1.00567 0.57645,-1.05691 0.57644,-1.10175 0.44834,-1.14658 0.44835,-1.19143 0.3843,-1.22346 0.32024,-1.26187 0.32025,-1.28752 0.2562,-1.31312 0.19214,-1.33876 0.1281,-1.35797 0.1281,-1.37078 0.0641,-1.38999 0.0641,-1.39 -0.0641,-1.40281 v -1.4028 l -0.1281,-1.3964 -0.1281,-1.3964 -0.19215,-1.39 -0.19214,-1.37078 -0.2562,-1.35796 -0.32025,-1.33876 -0.32024,-1.31953 -0.3843,-1.29392 -0.38429,-1.26188 -0.44835,-1.22345 c -3.90701,-9.58265 -13.2582,-10.51145 -20.30362,-9.58265 -3.65722,0.55088 -5.30969,1.30032 -9.91484,7.00123 -4.4258,5.90587 -5.70679,9.03817 -4.97662,19.17168 0.55082,10.3321 7.00059,18.08917 11.40717,21.76593 4.44503,3.87534 12.13094,3.33087 17.31893,0 z" />
      <path
         inkscape:connector-curvature="0"
         style="font-style:normal;font-variant:normal;font-weight:normal;font-stretch:normal;letter-spacing:normal;word-spacing:normal;text-anchor:start;fill:#d4af37;fill-opacity:1;stroke:#000000;stroke-width:1.2029916;stroke-linecap:butt;stroke-linejoin:miter;stroke-miterlimit:10.43299961;stroke-dasharray:none;stroke-dashoffset:0;stroke-opacity:1"
         id="path1262"
         d="m 333.76917,463.65518 0.89669,-0.62773 0.89669,-0.69821 0.83264,-0.76225 0.7686,-0.83271 0.70454,-0.89678 0.70454,-0.94801 0.57644,-1.00567 0.57645,-1.05691 0.57644,-1.10175 0.44834,-1.14658 0.44835,-1.19143 0.3843,-1.22346 0.32024,-1.26187 0.32025,-1.28752 0.2562,-1.31312 0.19214,-1.33876 0.1281,-1.35797 0.1281,-1.37078 0.0641,-1.38999 0.0641,-1.39 -0.0641,-1.40281 v -1.4028 l -0.1281,-1.3964 -0.1281,-1.3964 -0.19215,-1.39 -0.19214,-1.37078 -0.2562,-1.35796 -0.32025,-1.33876 -0.32024,-1.31953 -0.3843,-1.29392 -0.38429,-1.26188 -0.44835,-1.22345 c -3.90701,-9.58265 -13.2582,-10.51145 -20.30362,-9.58265 -3.65722,0.55088 -5.30969,1.30032 -9.91484,7.00123 -4.4258,5.90587 -5.70679,9.03817 -4.97662,19.17168 0.55082,10.3321 7.00059,18.08917 11.40717,21.76593 4.44503,3.87534 12.13094,3.33087 17.31893,0 z" />
      <path
         inkscape:connector-curvature="0"
         style="font-style:normal;font-variant:normal;font-weight:normal;font-stretch:normal;letter-spacing:normal;word-spacing:normal;text-anchor:start;fill:none;stroke:#000000;stroke-width:1.2029916;stroke-linecap:butt;stroke-linejoin:miter;stroke-miterlimit:10.43299961;stroke-dasharray:none;stroke-dashoffset:0;stroke-opacity:1"
         id="path1264"
         d="m 325.12252,416.08786 c 0,0 16.01232,12.53558 16.39662,14.01525" />
      <path
         inkscape:connector-curvature="0"
         style="font-style:normal;font-variant:normal;font-weight:normal;font-stretch:normal;letter-spacing:normal;word-spacing:normal;text-anchor:start;fill:none;stroke:#000000;stroke-width:1.2029916;stroke-linecap:butt;stroke-linejoin:miter;stroke-miterlimit:10.43299961;stroke-dasharray:none;stroke-dashoffset:0;stroke-opacity:1"
         id="path1266"
         d="m 315.54715,417.36255 c 0,0 14.89146,19.37027 27.25297,24.5267" />
      <path
         inkscape:connector-curvature="0"
         style="font-style:normal;font-variant:normal;font-weight:normal;font-stretch:normal;letter-spacing:normal;word-spacing:normal;text-anchor:start;fill:none;stroke:#000000;stroke-width:1.2029916;stroke-linecap:butt;stroke-linejoin:miter;stroke-miterlimit:10.43299961;stroke-dasharray:none;stroke-dashoffset:0;stroke-opacity:1"
         id="path1268"
         d="m 310.39758,421.79517 c 0,0 15.62163,22.49616 31.3137,29.49738" />
      <path
         inkscape:connector-curvature="0"
         style="font-style:normal;font-variant:normal;font-weight:normal;font-stretch:normal;letter-spacing:normal;word-spacing:normal;text-anchor:start;fill:none;stroke:#000000;stroke-width:1.2029916;stroke-linecap:butt;stroke-linejoin:miter;stroke-miterlimit:10.43299961;stroke-dasharray:none;stroke-dashoffset:0;stroke-opacity:1"
         id="path1270"
         d="m 306.5162,428.8028 c 0,0 13.80263,23.04063 31.28808,31.17562" />
      <path
         inkscape:connector-curvature="0"
         style="font-style:normal;font-variant:normal;font-weight:normal;font-stretch:normal;letter-spacing:normal;word-spacing:normal;text-anchor:start;fill:none;stroke:#000000;stroke-width:1.2029916;stroke-linecap:butt;stroke-linejoin:miter;stroke-miterlimit:10.43299961;stroke-dasharray:none;stroke-dashoffset:0;stroke-opacity:1"
         id="path1272"
         d="m 305.04307,438.38544 c 0,0 12.70738,24.71887 28.7261,25.26974" />
      <path
         inkscape:connector-curvature="0"
         style="font-style:normal;font-variant:normal;font-weight:normal;font-stretch:normal;letter-spacing:normal;word-spacing:normal;text-anchor:start;fill:none;stroke:#000000;stroke-width:1.2029916;stroke-linecap:butt;stroke-linejoin:miter;stroke-miterlimit:10.43299961;stroke-dasharray:none;stroke-dashoffset:0;stroke-opacity:1"
         id="path1274"
         d="m 324.22583,415.71634 c 0,0 -14.03321,13.63733 -18.63194,15.66147" />
      <path
         inkscape:connector-curvature="0"
         style="font-style:normal;font-variant:normal;font-weight:normal;font-stretch:normal;letter-spacing:normal;word-spacing:normal;text-anchor:start;fill:none;stroke:#000000;stroke-width:1.2029916;stroke-linecap:butt;stroke-linejoin:miter;stroke-miterlimit:10.43299961;stroke-dasharray:none;stroke-dashoffset:0;stroke-opacity:1"
         id="path1276"
         d="m 332.48819,417.56753 c 0,0 -13.46316,19.71617 -27.44512,24.8726" />
      <path
         inkscape:connector-curvature="0"
         style="font-style:normal;font-variant:normal;font-weight:normal;font-stretch:normal;letter-spacing:normal;word-spacing:normal;text-anchor:start;fill:none;stroke:#000000;stroke-width:1.2029916;stroke-linecap:butt;stroke-linejoin:miter;stroke-miterlimit:10.43299961;stroke-dasharray:none;stroke-dashoffset:0;stroke-opacity:1"
         id="path1278"
         d="m 337.61213,422.34604 c 0,0 -13.06605,21.76593 -29.82135,28.94651" />
      <path
         inkscape:connector-curvature="0"
         style="font-style:normal;font-variant:normal;font-weight:normal;font-stretch:normal;letter-spacing:normal;word-spacing:normal;text-anchor:start;fill:none;stroke:#000000;stroke-width:1.2029916;stroke-linecap:butt;stroke-linejoin:miter;stroke-miterlimit:10.43299961;stroke-dasharray:none;stroke-dashoffset:0;stroke-opacity:1"
         id="path1280"
         d="m 341.51914,429.72519 c 0,0 -12.55366,21.56736 -29.12322,29.87531" />
      <path
         inkscape:connector-curvature="0"
         style="font-style:normal;font-variant:normal;font-weight:normal;font-stretch:normal;letter-spacing:normal;word-spacing:normal;text-anchor:start;fill:none;stroke:#000000;stroke-width:1.2029916;stroke-linecap:butt;stroke-linejoin:miter;stroke-miterlimit:10.43299961;stroke-dasharray:none;stroke-dashoffset:0;stroke-opacity:1"
         id="path1282"
         d="m 342.99227,439.50641 c 0,0 -11.46482,21.91966 -26.54203,24.14877" />
      <path
         inkscape:connector-curvature="0"
         style="font-style:normal;font-variant:normal;font-weight:normal;font-stretch:normal;letter-spacing:normal;word-spacing:normal;text-anchor:start;fill:none;stroke:#000000;stroke-width:1.2029916;stroke-linecap:butt;stroke-linejoin:miter;stroke-miterlimit:10.43299961;stroke-dasharray:none;stroke-dashoffset:0;stroke-opacity:1"
         id="path1284"
         d="m 318.8521,423.81931 v 0 0.006 0.006 l -0.006,0.006 v 0.0128 l -0.006,0.0128 v 0.0128 l -0.006,0.0192 -0.0128,0.0384 -0.0128,0.0448 -0.0128,0.0577 -0.0192,0.0576 -0.0192,0.0641 -0.0257,0.0705 -0.0257,0.0769 -0.032,0.0833 -0.032,0.0833 -0.032,0.0897 -0.0384,0.096 -0.0448,0.0896 -0.0448,0.096 -0.0448,0.10249 -0.0576,0.096 -0.0512,0.10249 -0.0576,0.10249 -0.0641,0.096 -0.0641,0.10249 -0.0705,0.096 -0.0705,0.096 -0.0769,0.096 -0.0833,0.0896 -0.0833,0.0897 -0.0896,0.0833 -0.096,0.0769 -0.096,0.0769 -0.10248,0.0705 c -0.54442,0.55087 0.92871,1.47967 1.10164,2.40206" />
      <path
         inkscape:connector-curvature="0"
         style="font-style:normal;font-variant:normal;font-weight:normal;font-stretch:normal;letter-spacing:normal;word-spacing:normal;text-anchor:start;fill:none;stroke:#000000;stroke-width:1.2029916;stroke-linecap:butt;stroke-linejoin:miter;stroke-miterlimit:10.43299961;stroke-dasharray:none;stroke-dashoffset:0;stroke-opacity:1"
         id="path1286"
         d="m 313.87546,428.8028 v 0 0 l -0.006,0.006 v 0.0128 0.006 0.0128 l -0.006,0.032 -0.006,0.0384 -0.006,0.0448 -0.0128,0.0512 -0.0128,0.0641 -0.0128,0.0641 -0.0192,0.0705 -0.0192,0.0769 -0.0257,0.0769 -0.0257,0.0897 -0.032,0.0833 -0.032,0.096 -0.032,0.0897 -0.0448,0.096 -0.0448,0.096 -0.0448,0.10249 -0.0576,0.096 -0.0577,0.10249 -0.0576,0.10249 -0.0705,0.096 -0.0705,0.10249 -0.0769,0.096 -0.0833,0.0896 -0.0896,0.0961 -0.096,0.0896 -0.096,0.0833 -0.10888,0.0833 -0.10889,0.0769 -0.12169,0.0769 c -0.55082,0.55088 0.92872,1.47328 1.3002,2.40208" />
      <path
         inkscape:connector-curvature="0"
         style="font-style:normal;font-variant:normal;font-weight:normal;font-stretch:normal;letter-spacing:normal;word-spacing:normal;text-anchor:start;fill:none;stroke:#000000;stroke-width:1.2029916;stroke-linecap:butt;stroke-linejoin:miter;stroke-miterlimit:10.43299961;stroke-dasharray:none;stroke-dashoffset:0;stroke-opacity:1"
         id="path1288"
         d="m 310.01969,423.64636 v 0 0.006 0 0.0128 l -0.006,0.0192 -0.006,0.0257 -0.006,0.0384 -0.006,0.0384 -0.0128,0.0512 -0.0128,0.0512 -0.0128,0.0641 -0.0128,0.0641 -0.0257,0.0705 -0.0192,0.0705 -0.0257,0.0833 -0.0256,0.0833 -0.0321,0.0833 -0.032,0.0896 -0.0384,0.096 -0.0384,0.0897 -0.0448,0.096 -0.0448,0.10248 -0.0512,0.0961 -0.0576,0.10249 -0.0576,0.10248 -0.0641,0.096 -0.0641,0.10248 -0.0769,0.10249 -0.0705,0.0961 -0.0833,0.096 -0.0833,0.096 -0.0896,0.096 -0.096,0.0896 -0.10249,0.0897 c -0.72375,0.35231 0.74939,1.27469 1.10165,2.37644" />
      <path
         inkscape:connector-curvature="0"
         style="font-style:normal;font-variant:normal;font-weight:normal;font-stretch:normal;letter-spacing:normal;word-spacing:normal;text-anchor:start;fill:none;stroke:#000000;stroke-width:1.2029916;stroke-linecap:butt;stroke-linejoin:miter;stroke-miterlimit:10.43299961;stroke-dasharray:none;stroke-dashoffset:0;stroke-opacity:1"
         id="path1290"
         d="m 314.79778,418.84223 v 0 0.006 0 l -0.006,0.0128 v 0.0192 l -0.0128,0.0257 -0.006,0.0384 -0.0128,0.0384 -0.0192,0.0512 -0.0192,0.0512 -0.0192,0.0641 -0.0257,0.0641 -0.0257,0.0705 -0.0257,0.0705 -0.0384,0.0833 -0.032,0.0833 -0.0384,0.0833 -0.0448,0.0896 -0.0448,0.096 -0.0448,0.0896 -0.0512,0.096 -0.0576,0.10249 -0.0576,0.096 -0.0641,0.10249 -0.0641,0.10249 -0.0705,0.096 -0.0705,0.1025 -0.0769,0.10248 -0.0833,0.096 -0.0833,0.096 -0.0896,0.096 -0.0896,0.096 -0.10249,0.0897 -0.096,0.0896 c -0.73016,0.37793 0.74938,1.30033 1.10164,2.40207" />
      <path
         inkscape:connector-curvature="0"
         style="font-style:normal;font-variant:normal;font-weight:normal;font-stretch:normal;letter-spacing:normal;word-spacing:normal;text-anchor:start;fill:none;stroke:#000000;stroke-width:1.2029916;stroke-linecap:butt;stroke-linejoin:miter;stroke-miterlimit:10.43299961;stroke-dasharray:none;stroke-dashoffset:0;stroke-opacity:1"
         id="path1292"
         d="m 319.93453,415.71634 v 0 0.006 0.006 0.0128 0.0128 0.0128 l -0.0641,0.0192 v 0.0257 0.0257 l -0.0641,0.0257 v 0.032 0.0321 l -0.0641,0.0384 v 0.032 l -0.0641,0.0448 -0.0641,0.0384 v 0.0448 l -0.0641,0.0512 -0.0641,0.0448 -0.0641,0.0512 -0.0641,0.0512 -0.0641,0.0576 -0.0641,0.0577 -0.0641,0.0576 -0.0641,0.0576 -0.0705,0.0641 -0.0833,0.0576 -0.0833,0.0641 -0.0896,0.0705 -0.096,0.0641 -0.10248,0.0705 -0.10248,0.0705 c -0.72375,0.55087 0.75579,1.44764 1.14008,2.37644" />
      <path
         inkscape:connector-curvature="0"
         style="font-style:normal;font-variant:normal;font-weight:normal;font-stretch:normal;letter-spacing:normal;word-spacing:normal;text-anchor:start;fill:none;stroke:#000000;stroke-width:1.2029916;stroke-linecap:butt;stroke-linejoin:miter;stroke-miterlimit:10.43299961;stroke-dasharray:none;stroke-dashoffset:0;stroke-opacity:1"
         id="path1294"
         d="m 325.12252,418.66928 v 0 0 0.006 0.006 0.0192 0.032 l -0.0641,0.032 v 0.0448 0.0448 0.0576 l -0.0641,0.0576 v 0.0641 0.0705 l -0.0641,0.0769 v 0.0833 l -0.0641,0.0769 v 0.0896 l -0.0641,0.0896 -0.064,0.0897 -0.0641,0.096 v 0.0961 l -0.0641,0.096 -0.0641,0.10248 -0.0641,0.1025 -0.0641,0.096 -0.0641,0.10248 -0.0641,0.1025 -0.0641,0.096 -0.1281,0.10249 -0.0641,0.096 -0.0641,0.096 -0.12809,0.096 -0.0641,0.0897 -0.1281,0.0896 c -0.57645,0.3459 0.89669,1.47328 1.08884,2.37645" />
      <path
         inkscape:connector-curvature="0"
         style="font-style:normal;font-variant:normal;font-weight:normal;font-stretch:normal;letter-spacing:normal;word-spacing:normal;text-anchor:start;fill:none;stroke:#000000;stroke-width:1.2029916;stroke-linecap:butt;stroke-linejoin:miter;stroke-miterlimit:10.43299961;stroke-dasharray:none;stroke-dashoffset:0;stroke-opacity:1"
         id="path1296"
         d="m 331.39935,424.19724 v 0 0.006 0.006 0.006 0.006 0.0128 0.0192 0.0128 l -0.0641,0.0384 v 0.0448 0.0576 0.0576 l -0.0641,0.0641 v 0.0705 l -0.0641,0.0769 v 0.0833 0.0833 l -0.0641,0.0896 -0.0641,0.0897 v 0.0896 l -0.0641,0.096 -0.0641,0.1025 -0.0641,0.096 v 0.10249 l -0.0641,0.096 -0.0641,0.10248 -0.0641,0.10249 -0.0641,0.0961 -0.1281,0.096 -0.0641,0.096 -0.0641,0.0897 -0.0641,0.0896 -0.1281,0.0897 -0.0641,0.0769 -0.12809,0.0833 -0.0641,0.0705 c -0.57645,0.55088 0.70454,1.47327 1.08883,2.40207" />
      <path
         inkscape:connector-curvature="0"
         style="font-style:normal;font-variant:normal;font-weight:normal;font-stretch:normal;letter-spacing:normal;word-spacing:normal;text-anchor:start;fill:none;stroke:#000000;stroke-width:1.2029916;stroke-linecap:butt;stroke-linejoin:miter;stroke-miterlimit:10.43299961;stroke-dasharray:none;stroke-dashoffset:0;stroke-opacity:1"
         id="path1298"
         d="m 336.90759,429.35367 v 0 0 0.006 0.0128 0.006 0.0128 0.0128 0.0192 l -0.0641,0.0384 v 0.0448 0.0576 0.0576 0.0705 l -0.0641,0.0705 v 0.0769 0.0769 l -0.0641,0.0896 v 0.0896 l -0.0641,0.0897 v 0.096 l -0.0641,0.096 v 0.096 l -0.0641,0.10248 -0.0641,0.0961 -0.0641,0.10248 -0.0641,0.096 -0.0641,0.1025 -0.0641,0.096 -0.0641,0.096 -0.0641,0.096 -0.1281,0.0896 -0.0641,0.0897 -0.1281,0.0833 -0.0641,0.0833 -0.1281,0.0769 -0.0641,0.032 -0.0641,0.0384 c -0.57644,0.37152 0.89669,1.47327 1.28099,2.40207" />
      <path
         inkscape:connector-curvature="0"
         style="font-style:normal;font-variant:normal;font-weight:normal;font-stretch:normal;letter-spacing:normal;word-spacing:normal;text-anchor:start;fill:none;stroke:#000000;stroke-width:1.2029916;stroke-linecap:butt;stroke-linejoin:miter;stroke-miterlimit:10.43299961;stroke-dasharray:none;stroke-dashoffset:0;stroke-opacity:1"
         id="path1300"
         d="m 325.12252,430.44901 v 0.006 0 0.006 0.006 0.0128 0.0128 0.0128 0.0192 l -0.0641,0.0384 v 0.0448 0.0576 0.0576 l -0.0641,0.0641 v 0.0769 0.0769 l -0.0641,0.0769 v 0.0897 l -0.0641,0.0833 v 0.096 l -0.0641,0.0896 -0.064,0.10249 -0.0641,0.096 v 0.096 l -0.0641,0.10249 -0.0641,0.10249 -0.0641,0.096 -0.0641,0.10249 -0.0641,0.0961 -0.0641,0.096 -0.0641,0.0961 -0.1281,0.0896 -0.0641,0.0896 -0.0641,0.0833 -0.12809,0.0833 -0.0641,0.0705 -0.1281,0.0705 c -0.57645,0.37792 0.89669,1.47967 1.08884,2.40207" />
      <path
         inkscape:connector-curvature="0"
         style="font-style:normal;font-variant:normal;font-weight:normal;font-stretch:normal;letter-spacing:normal;word-spacing:normal;text-anchor:start;fill:none;stroke:#000000;stroke-width:1.2029916;stroke-linecap:butt;stroke-linejoin:miter;stroke-miterlimit:10.43299961;stroke-dasharray:none;stroke-dashoffset:0;stroke-opacity:1"
         id="path1302"
         d="m 319.61428,436.3549 v 0 0.006 0.006 0.006 0.0128 0.0128 0.0128 0.0192 0.0384 l -0.0641,0.0448 v 0.0576 0.0576 0.0641 0.0705 l -0.0641,0.0769 v 0.0833 0.0833 l -0.0641,0.0897 v 0.096 l -0.0641,0.0897 v 0.096 l -0.0641,0.10248 -0.0641,0.0961 -0.0641,0.10249 v 0.10248 l -0.0769,0.096 -0.0576,0.10248 -0.0641,0.096 -0.0641,0.096 -0.0705,0.096 -0.0769,0.0896 -0.0833,0.0897 -0.0833,0.0833 -0.0896,0.0769 -0.096,0.0769 -0.10248,0.0705 c -0.72376,0.55087 0.72376,1.47967 1.12086,2.40207" />
      <path
         inkscape:connector-curvature="0"
         style="font-style:normal;font-variant:normal;font-weight:normal;font-stretch:normal;letter-spacing:normal;word-spacing:normal;text-anchor:start;fill:none;stroke:#000000;stroke-width:1.2029916;stroke-linecap:butt;stroke-linejoin:miter;stroke-miterlimit:10.43299961;stroke-dasharray:none;stroke-dashoffset:0;stroke-opacity:1"
         id="path1304"
         d="m 325.31467,442.26078 v 0 0.006 0.006 0.006 0.0128 0.0128 0.0128 0.0192 l -0.0641,0.0384 v 0.0448 0.0512 0.0576 l -0.0641,0.0705 v 0.0705 0.0705 l -0.0641,0.0833 v 0.0833 l -0.0641,0.0896 -0.0641,0.0897 v 0.096 l -0.0641,0.096 -0.0641,0.096 v 0.096 l -0.0641,0.10248 -0.0641,0.1025 -0.0641,0.096 -0.0641,0.1025 -0.0641,0.096 -0.0641,0.096 -0.1281,0.0961 -0.0641,0.0896 -0.0641,0.0896 -0.1281,0.0897 -0.0641,0.0833 -0.1281,0.0769 -0.0641,0.0705 c -0.57645,0.55088 0.70454,1.47968 1.08883,2.40207" />
      <path
         inkscape:connector-curvature="0"
         style="font-style:normal;font-variant:normal;font-weight:normal;font-stretch:normal;letter-spacing:normal;word-spacing:normal;text-anchor:start;fill:none;stroke:#000000;stroke-width:1.2029916;stroke-linecap:butt;stroke-linejoin:miter;stroke-miterlimit:10.43299961;stroke-dasharray:none;stroke-dashoffset:0;stroke-opacity:1"
         id="path1306"
         d="m 331.2072,435.80402 v 0.006 0 0.006 0.006 0.0192 l -0.0641,0.032 v 0.032 0.0448 0.0448 0.0576 l -0.0641,0.0576 v 0.0641 l -0.0641,0.0705 v 0.0769 0.0769 l -0.0641,0.0833 -0.0641,0.0896 v 0.0897 l -0.0641,0.0896 -0.0641,0.096 v 0.096 l -0.0641,0.096 -0.0641,0.10249 -0.0641,0.096 -0.0641,0.10248 -0.0641,0.10249 -0.1281,0.0961 -0.0641,0.10249 -0.0641,0.10249 -0.0641,0.096 -0.12809,0.096 -0.0641,0.0897 -0.1281,0.096 -0.0641,0.0833 c -0.57644,0.37793 0.89669,1.30032 1.08884,2.40207" />
      <path
         inkscape:connector-curvature="0"
         style="font-style:normal;font-variant:normal;font-weight:normal;font-stretch:normal;letter-spacing:normal;word-spacing:normal;text-anchor:start;fill:none;stroke:#000000;stroke-width:1.2029916;stroke-linecap:butt;stroke-linejoin:miter;stroke-miterlimit:10.43299961;stroke-dasharray:none;stroke-dashoffset:0;stroke-opacity:1"
         id="path1308"
         d="m 337.09974,440.60816 v 0.006 0 0.006 0.006 0.0192 0.032 l -0.0641,0.032 v 0.0448 0.0448 0.0576 l -0.0641,0.0576 v 0.0641 0.0705 l -0.0641,0.0769 v 0.0769 l -0.0641,0.0833 -0.0641,0.0897 v 0.0896 l -0.0641,0.0897 -0.0641,0.096 v 0.096 l -0.0641,0.096 -0.0641,0.10248 -0.0641,0.096 -0.0641,0.1025 -0.0641,0.10248 -0.0641,0.0961 -0.1281,0.10249 -0.0641,0.10248 -0.0641,0.096 -0.1281,0.096 -0.0641,0.0896 -0.1281,0.096 -0.0641,0.0833 c -0.57644,0.3523 0.89669,1.2811 1.08884,2.37645" />
      <path
         inkscape:connector-curvature="0"
         style="font-style:normal;font-variant:normal;font-weight:normal;font-stretch:normal;letter-spacing:normal;word-spacing:normal;text-anchor:start;fill:none;stroke:#000000;stroke-width:1.2029916;stroke-linecap:butt;stroke-linejoin:miter;stroke-miterlimit:10.43299961;stroke-dasharray:none;stroke-dashoffset:0;stroke-opacity:1"
         id="path1310"
         d="m 342.22368,444.8422 v 0 0 0.006 0.006 0.0128 0.0128 0.0128 0.0192 0.0384 0.0448 l -0.0641,0.0576 v 0.0576 0.0641 l -0.0641,0.0769 v 0.0769 0.0769 l -0.0641,0.0896 v 0.0833 l -0.0641,0.096 -0.0641,0.096 v 0.096 l -0.0641,0.096 -0.0641,0.096 -0.0641,0.1025 -0.0641,0.10248 -0.064,0.096 -0.0641,0.1025 -0.0641,0.096 -0.0641,0.096 -0.0641,0.0961 -0.0641,0.0896 -0.1281,0.0897 -0.0641,0.0833 -0.1281,0.0833 -0.0641,0.0705 -0.1281,0.0769 c -0.51239,0.54446 0.7686,1.47326 1.15289,2.40206" />
      <path
         inkscape:connector-curvature="0"
         style="font-style:normal;font-variant:normal;font-weight:normal;font-stretch:normal;letter-spacing:normal;word-spacing:normal;text-anchor:start;fill:none;stroke:#000000;stroke-width:1.2029916;stroke-linecap:butt;stroke-linejoin:miter;stroke-miterlimit:10.43299961;stroke-dasharray:none;stroke-dashoffset:0;stroke-opacity:1"
         id="path1312"
         d="m 341.51914,433.60694 v 0 0 0.006 0.0128 0.006 0.0128 l -0.0641,0.0128 v 0.0192 0.0384 0.0448 0.0512 0.0641 0.0641 l -0.0641,0.0705 v 0.0769 0.0769 l -0.0641,0.0896 v 0.0833 0.096 l -0.0641,0.0897 v 0.096 l -0.0641,0.096 -0.0641,0.1025 v 0.096 l -0.0641,0.10248 -0.0641,0.10249 -0.0641,0.096 -0.0641,0.10249 -0.0641,0.096 -0.0641,0.0896 -0.0641,0.0961 -0.1281,0.0896 -0.0641,0.0833 -0.0641,0.0833 -0.1281,0.0769 -0.0641,0.0769 c -0.76859,0.55087 0.70454,1.47326 1.08884,2.37644" />
      <path
         inkscape:connector-curvature="0"
         style="font-style:normal;font-variant:normal;font-weight:normal;font-stretch:normal;letter-spacing:normal;word-spacing:normal;text-anchor:start;fill:none;stroke:#000000;stroke-width:1.2029916;stroke-linecap:butt;stroke-linejoin:miter;stroke-miterlimit:10.43299961;stroke-dasharray:none;stroke-dashoffset:0;stroke-opacity:1"
         id="path1314"
         d="m 331.52745,447.99371 v 0 0 0.006 0.0128 0.006 0.0128 0.0128 0.0192 0.0384 0.0448 0.0577 l -0.0641,0.0576 v 0.0641 0.0705 l -0.0641,0.0769 v 0.0769 l -0.0641,0.0833 v 0.0897 l -0.0641,0.0896 -0.0641,0.096 v 0.096 l -0.0641,0.096 -0.0641,0.096 -0.0641,0.10248 -0.0641,0.096 -0.0641,0.1025 -0.0641,0.096 -0.0641,0.096 -0.0641,0.096 -0.0641,0.0896 -0.0641,0.096 -0.1281,0.0833 -0.0641,0.0833 -0.0641,0.0833 -0.1281,0.0769 -0.12809,0.0705 c -0.70455,0.55088 0.76859,1.47328 1.15288,2.40207" />
      <path
         inkscape:connector-curvature="0"
         style="font-style:normal;font-variant:normal;font-weight:normal;font-stretch:normal;letter-spacing:normal;word-spacing:normal;text-anchor:start;fill:none;stroke:#000000;stroke-width:1.2029916;stroke-linecap:butt;stroke-linejoin:miter;stroke-miterlimit:10.43299961;stroke-dasharray:none;stroke-dashoffset:0;stroke-opacity:1"
         id="path1316"
         d="m 325.50682,453.87397 v 0 0 0.006 0.006 l -0.0641,0.0257 v 0.0257 0.032 0.0448 0.0448 l -0.0641,0.0576 v 0.0576 0.0705 l -0.0641,0.0705 v 0.0705 l -0.0641,0.0833 v 0.0833 l -0.0641,0.0833 v 0.0897 l -0.0641,0.0896 -0.0641,0.0961 -0.0641,0.096 -0.0641,0.10248 v 0.096 l -0.0641,0.10248 -0.0641,0.096 -0.12809,0.1025 -0.0641,0.10248 -0.0641,0.096 -0.0641,0.1025 -0.0641,0.096 -0.1281,0.096 -0.0641,0.096 -0.1281,0.0896 -0.0641,0.0897 c -0.76859,0.37151 0.70455,1.30031 1.08884,2.40206" />
      <path
         inkscape:connector-curvature="0"
         style="font-style:normal;font-variant:normal;font-weight:normal;font-stretch:normal;letter-spacing:normal;word-spacing:normal;text-anchor:start;fill:none;stroke:#000000;stroke-width:1.2029916;stroke-linecap:butt;stroke-linejoin:miter;stroke-miterlimit:10.43299961;stroke-dasharray:none;stroke-dashoffset:0;stroke-opacity:1"
         id="path1318"
         d="m 338.18857,452.3943 v 0 0.006 0.006 0.006 0.0128 0.0128 0.0128 0.0192 0.0384 l -0.0641,0.0448 v 0.0512 0.0641 l -0.0641,0.0641 v 0.0705 0.0769 l -0.0641,0.0833 v 0.0833 l -0.0641,0.0896 v 0.0896 l -0.0641,0.096 -0.0641,0.096 -0.0641,0.1025 v 0.096 l -0.0641,0.10248 -0.0641,0.0961 -0.0641,0.10249 -0.0641,0.10248 -0.0641,0.096 -0.0641,0.096 -0.0641,0.096 -0.1281,0.0897 -0.0641,0.0896 -0.0641,0.0833 -0.1281,0.0769 -0.0641,0.0769 -0.1281,0.0705 c -0.57644,0.37793 0.89669,1.47968 1.08884,2.40207" />
      <path
         inkscape:connector-curvature="0"
         style="font-style:normal;font-variant:normal;font-weight:normal;font-stretch:normal;letter-spacing:normal;word-spacing:normal;text-anchor:start;fill:none;stroke:#000000;stroke-width:1.2029916;stroke-linecap:butt;stroke-linejoin:miter;stroke-miterlimit:10.43299961;stroke-dasharray:none;stroke-dashoffset:0;stroke-opacity:1"
         id="path1320"
         d="m 332.29604,457.92225 v 0.006 0 0.006 0.006 0.0128 0.0128 0.0128 0.0192 l -0.0641,0.0384 v 0.0448 0.0576 0.0577 l -0.0641,0.0641 v 0.0769 0.0769 l -0.0641,0.0769 v 0.0897 l -0.0641,0.0833 v 0.096 l -0.0641,0.096 -0.0641,0.096 v 0.096 l -0.0641,0.096 -0.0641,0.10249 -0.0641,0.10249 -0.0641,0.096 -0.0641,0.10249 -0.0641,0.096 -0.0641,0.096 -0.0641,0.096 -0.1281,0.0897 -0.0641,0.0896 -0.0641,0.0833 -0.1281,0.0833 -0.0641,0.0705 -0.12809,0.0705 c -0.57645,0.55087 0.89669,1.47967 1.08883,2.40207" />
      <path
         inkscape:connector-curvature="0"
         style="font-style:normal;font-variant:normal;font-weight:normal;font-stretch:normal;letter-spacing:normal;word-spacing:normal;text-anchor:start;fill:none;stroke:#000000;stroke-width:1.2029916;stroke-linecap:butt;stroke-linejoin:miter;stroke-miterlimit:10.43299961;stroke-dasharray:none;stroke-dashoffset:0;stroke-opacity:1"
         id="path1322"
         d="m 318.67916,457.57635 v 0 0 l -0.006,0.0128 v 0.0257 l -0.006,0.0257 -0.006,0.032 -0.0128,0.0448 -0.006,0.0512 -0.0128,0.0512 -0.0192,0.0576 -0.0192,0.0705 -0.0192,0.0705 -0.0257,0.0705 -0.0257,0.0833 -0.032,0.0833 -0.032,0.0833 -0.0384,0.0897 -0.0384,0.096 -0.0448,0.0896 -0.0512,0.0961 -0.0512,0.10249 -0.0577,0.096 -0.0641,0.10249 -0.0705,0.10249 -0.0705,0.096 -0.0769,0.10249 -0.0832,0.10249 -0.0833,0.0961 -0.096,0.096 -0.096,0.096 -0.10247,0.0961 -0.1153,0.0896 -0.11529,0.0896 c -0.55082,0.3459 0.92872,1.2747 1.27458,2.37645" />
      <path
         inkscape:connector-curvature="0"
         style="font-style:normal;font-variant:normal;font-weight:normal;font-stretch:normal;letter-spacing:normal;word-spacing:normal;text-anchor:start;fill:none;stroke:#000000;stroke-width:1.2029916;stroke-linecap:butt;stroke-linejoin:miter;stroke-miterlimit:10.43299961;stroke-dasharray:none;stroke-dashoffset:0;stroke-opacity:1"
         id="path1324"
         d="m 312.97237,452.22135 v 0 0.006 0.006 l -0.006,0.006 v 0.006 l -0.006,0.0128 v 0.0192 l -0.006,0.0128 -0.0128,0.0384 -0.0128,0.0448 -0.0128,0.0576 -0.0193,0.0576 -0.0192,0.0641 -0.0257,0.0705 -0.0257,0.0769 -0.032,0.0833 -0.032,0.0833 -0.032,0.0896 -0.0384,0.0897 -0.0448,0.0896 -0.0448,0.096 -0.0448,0.1025 -0.0512,0.096 -0.0577,0.10249 -0.0576,0.096 -0.0641,0.10248 -0.0641,0.1025 -0.0705,0.096 -0.0705,0.096 -0.0769,0.096 -0.0833,0.0896 -0.0833,0.0896 -0.0896,0.0897 -0.096,0.0769 -0.096,0.0833 -0.096,0.0705 c -0.55082,0.55088 0.89669,1.47327 1.09524,2.40207" />
      <path
         inkscape:connector-curvature="0"
         style="font-style:normal;font-variant:normal;font-weight:normal;font-stretch:normal;letter-spacing:normal;word-spacing:normal;text-anchor:start;fill:none;stroke:#000000;stroke-width:1.2029916;stroke-linecap:butt;stroke-linejoin:miter;stroke-miterlimit:10.43299961;stroke-dasharray:none;stroke-dashoffset:0;stroke-opacity:1"
         id="path1326"
         d="m 308.16867,443.9134 v 0 0.006 0.006 l -0.006,0.006 v 0.0128 l -0.006,0.0128 v 0.0128 l -0.006,0.0128 -0.0128,0.0448 -0.0128,0.0448 -0.0128,0.0512 -0.0192,0.0641 -0.0192,0.0641 -0.0257,0.0705 -0.0257,0.0769 -0.032,0.0833 -0.032,0.0833 -0.032,0.0896 -0.0384,0.0897 -0.0448,0.096 -0.0448,0.096 -0.0448,0.096 -0.0512,0.10249 -0.0576,0.10249 -0.0577,0.096 -0.0641,0.10249 -0.0641,0.0961 -0.0705,0.10249 -0.0705,0.096 -0.0769,0.0897 -0.0832,0.096 -0.0833,0.0833 -0.0896,0.0896 -0.096,0.0769 -0.096,0.0769 -0.096,0.0705 c -0.55082,0.37792 0.92231,1.47326 1.09524,2.40206" />
      <path
         inkscape:connector-curvature="0"
         style="font-style:normal;font-variant:normal;font-weight:normal;font-stretch:normal;letter-spacing:normal;word-spacing:normal;text-anchor:start;fill:none;stroke:#000000;stroke-width:1.2029916;stroke-linecap:butt;stroke-linejoin:miter;stroke-miterlimit:10.43299961;stroke-dasharray:none;stroke-dashoffset:0;stroke-opacity:1"
         id="path1328"
         d="m 313.32464,441.15903 v 0 0.006 l -0.006,0.006 v 0.006 0.0128 l -0.006,0.0128 v 0.0128 l -0.006,0.0192 -0.0128,0.0384 -0.0128,0.0448 -0.0128,0.0512 -0.0192,0.0576 -0.0192,0.0705 -0.0192,0.0705 -0.0257,0.0769 -0.032,0.0769 -0.032,0.0833 -0.032,0.0896 -0.0384,0.0897 -0.0448,0.096 -0.0448,0.096 -0.0448,0.096 -0.0512,0.10248 -0.0576,0.0961 -0.0576,0.10249 -0.0576,0.096 -0.0705,0.1025 -0.0705,0.096 -0.0705,0.096 -0.0769,0.096 -0.0833,0.096 -0.0833,0.0897 -0.0896,0.0833 -0.096,0.0833 -0.10249,0.0769 -0.10247,0.0705 c -0.72376,0.55087 0.74937,1.47967 1.12726,2.37644" />
      <path
         inkscape:connector-curvature="0"
         style="font-style:normal;font-variant:normal;font-weight:normal;font-stretch:normal;letter-spacing:normal;word-spacing:normal;text-anchor:start;fill:none;stroke:#000000;stroke-width:1.2029916;stroke-linecap:butt;stroke-linejoin:miter;stroke-miterlimit:10.43299961;stroke-dasharray:none;stroke-dashoffset:0;stroke-opacity:1"
         id="path1330"
         d="m 318.8521,447.61578 v 0 0.006 0.006 l -0.006,0.006 -0.006,0.0192 -0.006,0.0257 -0.0128,0.0384 -0.0128,0.0384 -0.0128,0.0512 -0.0192,0.0512 -0.0192,0.0641 -0.0257,0.0641 -0.0257,0.0705 -0.032,0.0769 -0.032,0.0769 -0.032,0.0833 -0.0384,0.0833 -0.0448,0.0897 -0.0448,0.096 -0.0448,0.096 -0.0576,0.096 -0.0512,0.096 -0.0576,0.096 -0.0641,0.1025 -0.0641,0.10248 -0.0705,0.10249 -0.0705,0.096 -0.0769,0.10248 -0.0833,0.096 -0.0833,0.1025 -0.0896,0.0896 -0.096,0.096 -0.096,0.0896 -0.10248,0.0896 c -0.54442,0.35231 0.92871,1.47968 1.10164,2.37645" />
      <path
         inkscape:connector-curvature="0"
         style="font-style:normal;font-variant:normal;font-weight:normal;font-stretch:normal;letter-spacing:normal;word-spacing:normal;text-anchor:start;fill:none;stroke:#000000;stroke-width:1.2029916;stroke-linecap:butt;stroke-linejoin:miter;stroke-miterlimit:10.43299961;stroke-dasharray:none;stroke-dashoffset:0;stroke-opacity:1"
         id="path1332"
         d="m 308.16867,433.97845 v 0 0.006 0.0128 l -0.006,0.0192 -0.006,0.0257 -0.006,0.0384 -0.006,0.0384 -0.006,0.0512 -0.0128,0.0512 -0.0192,0.0576 -0.0192,0.0641 -0.0192,0.0705 -0.0192,0.0769 -0.032,0.0769 -0.0257,0.0769 -0.032,0.0896 -0.0384,0.0897 -0.0384,0.0896 -0.0448,0.0896 -0.0512,0.096 -0.0512,0.096 -0.0576,0.10248 -0.0641,0.096 -0.0705,0.10249 -0.0705,0.0961 -0.0769,0.10249 -0.0833,0.096 -0.0896,0.10249 -0.0896,0.096 -0.10247,0.096 -0.10248,0.0897 -0.11529,0.096 -0.11529,0.0833 c -0.55082,0.55087 0.92232,1.47967 1.09525,2.40206" />
    </g>
  </g>
</svg>
